<svg width="35" height="35" viewBox="0 0 35 35" fill="none" xmlns="http://www.w3.org/2000/svg">
<path d="M13.5275 2.89259C12.7894 2.89259 11.3499 2.70809 9.67346 2.89259C7.99702 3.07709 2.62147 10.5186 1.22747 12.0766C-0.166534 13.6346 1.22747 14.5366 1.22747 14.5366C1.22747 14.5366 4.67144 17.5706 5.65546 18.3906C6.63948 19.2106 7.37746 18.3906 7.37746 18.3906L8.68946 17.0786C8.68946 17.0786 8.60748 30.9366 8.68946 32.4126C8.77144 33.8886 10.2475 33.6426 10.2475 33.6426L25.4995 31.7566C25.4995 31.7566 26.5655 31.4286 26.6475 30.2806C26.7295 29.1326 26.6475 15.2746 26.6475 15.2746L27.7955 16.2586C27.7955 16.2586 29.0255 16.9146 29.8455 15.8486C30.6655 14.7826 34.1095 10.8466 34.1095 10.8466C34.1095 10.8466 34.9295 9.86259 33.8635 8.71459C32.7975 7.56659 27.5039 1.88809 26.1555 1.58059C24.807 1.27309 23.5315 1.49859 22.3835 1.66259C21.2355 1.82659 20.3335 4.61459 17.4635 4.61459C14.5935 4.61459 14.2655 2.89259 13.5275 2.89259Z" fill="#ED1C24" stroke="white"/>
</svg>
